HIERARCHY
ROOT Hips
{
     OFFSET 17.96050 97.74250 -36.99900
     CHANNELS 6 Xposition Yposition Zposition Zrotation Xrotation Yrotation
     JOINT Spine
     {
          OFFSET 0.00000 11.89050 0.00000
          CHANNELS 3 Zrotation Xrotation Yrotation
          JOINT Spine1
          {
               OFFSET 0.00000 25.65740 0.12766
               CHANNELS 3 Zrotation Xrotation Yrotation
               JOINT HEad
               {
                    OFFSET 0.00000 8.73416 0.01134
                    CHANNELS 3 Zrotation Xrotation Yrotation
                    End Site
                    {
                         OFFSET -0.29000 12.77420 2.51395
                    }
               }
               JOINT LeftShoulder1
               {
                    OFFSET 8.99000 -0.36225 -0.22000
                    CHANNELS 3 Zrotation Xrotation Yrotation
                    JOINT LeftArm
                    {
                         OFFSET 10.28270 -0.00338 0.32212
                         CHANNELS 3 Zrotation Xrotation Yrotation
                         JOINT LeftForeArm
                         {
                              OFFSET 32.76690 0.09914 -1.42434
                              CHANNELS 3 Zrotation Xrotation Yrotation
                              JOINT LeftHand
                              {
                                   OFFSET 27.56430 0.08536 1.02216
                                   CHANNELS 3 Zrotation Xrotation Yrotation
                                   End Site
                                   {
                                        OFFSET 16.74430 -0.60000 1.50291
                                   }
                              }
                         }
                    }
               }
               JOINT RightShoulder
               {
                    OFFSET -8.99000 -0.36225 -0.22000
                    CHANNELS 3 Zrotation Xrotation Yrotation
                    JOINT RightArm
                    {
                         OFFSET -10.28270 -0.00338 0.32212
                         CHANNELS 3 Zrotation Xrotation Yrotation
                         JOINT RightForeArm
                         {
                              OFFSET -32.89710 0.09914 -1.42434
                              CHANNELS 3 Zrotation Xrotation Yrotation
                              JOINT RightHand
                              {
                                   OFFSET -27.49210 0.08536 1.02216
                                   CHANNELS 3 Zrotation Xrotation Yrotation
                                   End Site
                                   {
                                        OFFSET -16.63120 -0.60000 1.50291
                                   }
                              }
                         }
                    }
               }
          }
     }
     JOINT LeftUpLeg
     {
          OFFSET 8.94580 -8.66707 0.10165
          CHANNELS 3 Zrotation Xrotation Yrotation
          JOINT LeftLeg
          {
               OFFSET 0.00000 -44.42270 1.37270
               CHANNELS 3 Zrotation Xrotation Yrotation
               JOINT LeftFoot
               {
                    OFFSET -0.25355 -42.09240 -1.46059
                    CHANNELS 3 Zrotation Xrotation Yrotation
                    JOINT LeftToes
                    {
                         OFFSET -0.04000 -4.41509 8.49910
                         CHANNELS 3 Zrotation Xrotation Yrotation
                         End Site
                         {
                              OFFSET 0.08000 -0.04745 9.77979
                         }
                    }
               }
          }
     }
     JOINT RightUpLeg
     {
          OFFSET -8.94580 -8.66707 0.10165
          CHANNELS 3 Zrotation Xrotation Yrotation
          JOINT RightLeg
          {
               OFFSET 0.00000 -44.42270 1.37270
               CHANNELS 3 Zrotation Xrotation Yrotation
               JOINT RightFoot
               {
                    OFFSET 0.25355 -42.09240 -1.46059
                    CHANNELS 3 Zrotation Xrotation Yrotation
                    JOINT RightToes
                    {
                         OFFSET 0.04000 -4.41509 8.49910
                         CHANNELS 3 Zrotation Xrotation Yrotation
                         End Site
                         {
                              OFFSET -0.08000 -0.13745 9.77979
                         }
                    }
               }
          }
     }
}
MOTION
Frames: 16
Frame Time: 0.01667
17.96050 97.74250 -36.99900 -6.18528 -7.93024 -19.14140 4.95589 6.91516 0.13017 3.08635 14.39450 0.64320 -1.94612 -1.53670 2.31200 0.00000 0.00000 0.00000 -88.70160 -38.86370 -59.92900 12.13220 36.01970 -111.64100 32.30870 12.06900 12.12660 11.93580 0.86771 3.10137 76.27790 -17.49790 69.98380 8.06437 33.04210 91.39900 -2.63898 9.66357 10.03080 17.80070 -10.43150 1.13078 -2.60548 15.32500 4.63149 -9.80339 -1.18283 0.54778 2.49327 4.19456 -2.45615 -1.18555 -1.45333 -2.09264 -3.60790 33.10810 11.62440 10.77700 -26.08500 1.50981 4.02644 17.01190 -11.23480 
18.48520 97.54260 -36.40440 -6.39741 -7.91949 -19.63700 4.70434 7.07941 0.09681 3.02907 14.67730 0.57035 -1.52319 -1.93639 2.66968 0.00000 0.00000 0.00000 -88.91170 -39.03770 -60.06600 11.82590 36.30100 -110.93900 32.23870 12.00360 11.90930 11.89170 0.87105 3.13683 76.50710 -17.15840 70.05650 7.51422 33.01490 91.65370 -2.63858 9.66444 9.98133 17.64090 -10.76130 1.12990 -2.73855 16.85060 5.26436 -8.73947 -1.14307 0.48998 1.45466 2.85135 -2.61499 -1.39930 -1.61671 -1.90145 -3.80924 33.82400 11.88910 10.49300 -25.64460 1.42138 3.38621 15.08910 -10.56410 
19.03230 97.34460 -35.81820 -6.55457 -7.94437 -20.03700 4.43998 7.26808 0.06326 2.95865 15.01170 0.48789 -1.17732 -2.29432 2.92873 0.00000 0.00000 0.00000 -89.22510 -39.10650 -60.29770 11.49090 36.65780 -110.23400 32.09980 11.97410 11.83760 11.83780 0.86471 3.11005 76.73970 -16.88850 70.04560 6.98695 32.99780 91.76970 -2.61042 9.66842 9.95113 17.36340 -11.30840 1.46807 -2.66587 18.68490 5.50180 -8.03368 -1.01186 0.45797 0.01021 0.87766 -2.52102 -1.66009 -1.78481 -1.74593 -4.09538 34.56400 12.14650 10.35660 -25.18950 1.35773 2.78252 13.18510 -9.92928 
19.60250 97.14720 -35.23930 -6.68712 -8.01130 -20.36280 4.19211 7.47447 0.03756 2.90291 15.38570 0.41522 -1.01930 -2.59417 3.07852 0.00000 0.00000 0.00000 -89.55960 -39.06020 -60.55040 11.26450 36.97650 -109.65400 31.92280 11.98380 11.91750 11.76560 0.85211 3.04601 76.93550 -16.71090 69.92290 6.50950 32.98980 91.74450 -2.59163 9.67115 9.92592 17.01220 -11.98290 2.12836 -2.38013 20.70950 5.31664 -7.74225 -0.84768 0.45105 -1.63466 -1.43618 -2.31690 -1.93880 -1.94355 -1.67765 -4.52641 35.32620 12.51960 10.42060 -24.74020 1.32709 2.23650 11.38440 -9.41302 
20.20070 96.96070 -34.66370 -6.82366 -8.10685 -20.69220 3.97234 7.68176 0.03938 2.87528 15.76430 0.39437 -1.06608 -2.85814 3.19451 0.00000 0.00000 0.00000 -89.82150 -38.91350 -60.71720 11.21690 37.16940 -109.28400 31.75120 12.01730 12.08470 11.69830 0.84029 2.98529 77.02050 -16.63410 69.67800 6.14438 32.98280 91.54980 -2.59786 9.67086 9.89693 16.65120 -12.61070 3.00707 -1.96810 22.67480 4.86623 -7.70598 -0.68892 0.45857 -3.41806 -3.95009 -2.18996 -2.22821 -2.09536 -1.65675 -5.09850 36.09090 13.07920 10.85990 -24.37270 1.36062 1.84868 10.06210 -9.06127 
20.82880 96.80690 -34.09050 -6.96165 -8.18934 -21.11190 3.76727 7.86494 0.08911 2.86508 16.09470 0.46500 -1.26189 -3.09286 3.38308 0.00000 0.00000 0.00000 -89.96970 -38.70920 -60.73290 11.29050 37.22480 -109.12200 31.59800 12.04600 12.23060 11.67390 0.83612 2.96398 76.94870 -16.64540 69.35760 5.95956 32.97430 91.14160 -2.61490 9.66896 9.88485 16.31650 -13.04450 3.94991 -1.54279 24.31310 4.41018 -7.79331 -0.49480 0.47591 -5.36567 -6.58779 -2.36753 -2.55305 -2.27457 -1.60773 -5.73451 36.80690 13.79090 11.79110 -24.11290 1.47570 1.70385 9.54708 -8.80616 
21.48240 96.70000 -33.52030 -7.07322 -8.20862 -21.66230 3.56438 8.00062 0.19415 2.85487 16.32960 0.63994 -1.54081 -3.26367 3.69572 0.00000 0.00000 0.00000 -90.00320 -38.48730 -60.59130 11.34210 37.18840 -109.09700 31.48050 12.04030 12.24130 11.69880 0.84117 2.99117 76.72190 -16.70740 69.03730 5.97486 32.95170 90.53340 -2.63164 9.66633 9.91937 15.99780 -13.25090 4.81501 -1.15849 25.48140 4.15544 -8.08150 -0.13733 0.51701 -7.55687 -9.31423 -3.05017 -2.94720 -2.54493 -1.50915 -6.34053 37.44930 14.58770 13.13520 -23.91230 1.65442 1.80423 9.87468 -8.62257 
22.15090 96.63660 -32.95470 -7.13682 -8.13882 -22.32800 3.36612 8.08335 0.34514 2.84081 16.46000 0.90055 -1.85616 -3.34626 4.12390 0.00000 0.00000 0.00000 -89.94100 -38.27280 -60.34670 11.24560 37.11010 -109.11000 31.42830 11.98260 12.04160 11.71100 0.85048 3.05098 76.42290 -16.76770 68.79000 6.12905 32.90020 89.85210 -2.64455 9.66379 9.97614 15.67380 -13.29300 5.49948 -0.83237 26.20490 4.19821 -8.70021 0.48992 0.60155 -10.03780 -12.08580 -4.29199 -3.42308 -2.96148 -1.39004 -6.85515 38.05550 15.44290 14.71860 -23.73800 1.86722 2.11562 10.94480 -8.65939 
22.81860 96.61080 -32.39880 -7.15144 -7.99176 -23.04240 3.17949 8.13111 0.51512 2.82706 16.52410 1.19544 -2.18911 -3.36500 4.63277 0.00000 0.00000 0.00000 -89.83020 -38.09260 -60.12010 10.98450 37.01330 -109.11900 31.44100 11.88130 11.66290 11.62710 0.85814 3.12818 76.20770 -16.78030 68.69090 6.32115 32.82950 89.28100 -2.64867 9.66325 9.97759 15.34020 -13.25640 5.92924 -0.61934 26.61040 4.54933 -9.52524 1.28896 0.72196 -12.58610 -14.65470 -5.85739 -3.97464 -3.51835 -1.27203 -7.21046 38.66480 16.26720 16.36110 -23.58070 2.08672 2.61700 12.65180 -9.00163 
23.46740 96.63020 -31.86430 -7.13519 -7.79746 -23.71250 3.01263 8.16620 0.67316 2.81710 16.56790 1.46757 -2.53695 -3.35703 5.15132 0.00000 0.00000 0.00000 -89.73590 -37.96100 -60.04600 10.66820 36.89940 -109.17500 31.47840 11.78120 11.28320 11.44650 0.86185 3.20865 76.17280 -16.72920 68.79460 6.49041 32.76400 88.95360 -2.65530 9.66406 9.88072 15.01230 -13.19310 6.07817 -0.59384 26.81720 5.15267 -10.20390 1.97446 0.83198 -14.69910 -16.62260 -7.26283 -4.58479 -4.14277 -1.12654 -7.28150 39.25240 16.79590 17.85040 -23.37110 2.27157 3.25939 14.77040 -9.41048 
24.07780 96.70820 -31.36720 -7.11439 -7.57213 -24.26810 2.87531 8.19435 0.80581 2.82094 16.60330 1.69313 -2.87991 -3.33803 5.57913 0.00000 0.00000 0.00000 -89.71310 -37.86140 -60.19290 10.45290 36.76590 -109.36800 31.50690 11.73670 11.11190 11.25480 0.86137 3.26509 76.28640 -16.63230 69.10050 6.61555 32.72150 88.92400 -2.68832 9.66255 9.73234 14.71900 -13.11910 5.99401 -0.76810 26.87320 5.89541 -10.49880 2.31135 0.88564 -15.93830 -17.73530 -8.08808 -5.21308 -4.75328 -0.89674 -6.96326 39.74780 16.75200 19.01110 -22.98670 2.37427 3.90013 16.84540 -9.56850 
24.63090 96.84450 -30.92110 -7.10535 -7.31944 -24.67980 2.78016 8.20851 0.91062 2.85245 16.61630 1.86881 -3.18432 -3.30057 5.84974 0.00000 0.00000 0.00000 -89.79130 -37.77580 -60.54720 10.44360 36.61650 -109.73500 31.54540 11.76770 11.21740 11.11590 0.85726 3.28027 76.50440 -16.51900 69.57230 6.67666 32.72260 89.18400 -2.73621 9.65884 9.61167 14.47650 -13.03540 5.79690 -1.05081 26.78030 6.60041 -10.45440 2.26653 0.87795 -16.21090 -18.00650 -8.22442 -5.80107 -5.29864 -0.57239 -6.29109 40.09600 16.08030 19.81730 -22.38770 2.38173 4.37754 18.39070 -9.55232 
25.11360 97.02400 -30.53000 -7.10855 -7.05836 -24.94160 2.74810 8.20430 0.97889 2.91396 16.60010 1.98253 -3.44053 -3.20756 5.96592 0.00000 0.00000 0.00000 -89.97340 -37.70480 -61.05280 10.64530 36.45980 -110.21200 31.65320 11.85030 11.49620 11.00750 0.85175 3.27591 76.87220 -16.41460 70.17130 6.66161 32.79860 89.68510 -2.73497 9.66030 9.53671 14.26820 -12.93070 5.63379 -1.30119 26.54000 7.07280 -10.23770 1.95745 0.83343 -15.73810 -17.63820 -7.83367 -6.30332 -5.74092 -0.22395 -5.44891 40.29370 14.94020 20.39420 -21.71200 2.33645 4.67851 19.29100 -9.86042 
25.52410 97.23030 -30.19070 -7.11983 -6.82290 -25.06140 2.79774 8.18525 1.00110 2.99620 16.56370 2.02184 -3.65477 -3.02338 5.97130 0.00000 0.00000 0.00000 -90.24150 -37.65130 -61.65400 10.97350 36.30780 -110.67300 31.86050 11.94440 11.78970 10.86540 0.84798 3.29489 77.46130 -16.32910 70.85990 6.57363 32.96630 90.37380 -2.62022 9.67557 9.44478 14.06490 -12.77650 5.59827 -1.43188 26.15260 7.21692 -9.93621 1.55855 0.77592 -14.89490 -16.93920 -7.18091 -6.70383 -6.04330 0.05778 -4.64842 40.38330 13.52690 20.90930 -21.20760 2.30875 4.93589 19.85570 -10.94050 
25.86690 97.45440 -29.89680 -7.14299 -6.63583 -25.05670 2.92513 8.15660 0.97930 3.09161 16.51740 1.99132 -3.81176 -2.77403 5.91421 0.00000 0.00000 0.00000 -90.56350 -37.60880 -62.30320 11.32340 36.17280 -111.02500 32.12280 12.02590 12.01930 10.66760 0.84829 3.36220 78.23450 -16.24730 71.59180 6.42726 33.19290 91.20090 -2.38602 9.70609 9.26173 13.85420 -12.54570 5.68831 -1.43721 25.61010 7.07260 -9.54900 1.23766 0.71988 -14.04030 -16.22970 -6.49563 -7.00943 -6.18077 0.24419 -3.97431 40.42650 11.92040 21.41370 -21.07050 2.34576 5.26605 20.42570 -12.74070 
26.14760 97.69240 -29.64010 -7.18897 -6.49695 -24.95390 3.10725 8.11828 0.92730 3.19685 16.45840 1.91418 -3.89169 -2.54459 5.84198 0.00000 0.00000 0.00000 -90.89680 -37.56790 -62.94370 11.62460 36.06940 -111.24800 32.36060 12.09260 12.19830 10.45260 0.85288 3.46863 79.03780 -16.14030 72.31180 6.24490 33.40840 92.10440 -2.07855 9.74547 8.98256 13.64700 -12.23260 5.83228 -1.35353 24.92340 6.74799 -9.11567 1.07838 0.67437 -13.34000 -15.67570 -5.87028 -7.23701 -6.15081 0.38997 -3.34590 40.47720 10.07550 21.76960 -21.32140 2.43925 5.66422 21.07570 -14.72050 
